# xmcd
#
# Track frame offsets: 
#        150
#        13618
#        22808
#        24394
#        39948
#        65546
#        85280
#        98045
#        115082
#        126309
#        127498
#        162406
#
# Disc length: 3414 seconds
#
# Revision: 0
# Processed by: cddbd v1.5.1PL0 Copyright (c) Steve Scherf et al.
# Submitted via: ExactAudioCopy v0.95a5
#
DISCID=970d540c
DTITLE=Acoustic Soul Factory - Acoustic Soul Factory
DYEAR=2002
DGENRE=Country Rock
TTITLE0=Gotta keep movin' on
TTITLE1=Friends are for
TTITLE2=Interlude #1 - "Caz in the kitchen"
TTITLE3=Eddie's lonely heart
TTITLE4=Gypsy Man
TTITLE5=Love the one you're with
TTITLE6=Still can't forget you
TTITLE7=Ain't got no money
TTITLE8=Two more bottles of wine
TTITLE9=Interlude #2 - "Vocalizing in the hall"
TTITLE10=Proud Mary
TTITLE11=Live Video
EXTD=
EXTT0=
EXTT1=
EXTT2=
EXTT3=
EXTT4=
EXTT5=
EXTT6=
EXTT7=
EXTT8=
EXTT9=
EXTT10=
EXTT11=
PLAYORDER=
